# MagicaVoxel @ Ephtracy

# group
g paint_xm

# material
mtllib paint_xm.mtl
usemtl palette

# normals
vn -1 0 0
vn 1 0 0
vn 0 0 1
vn 0 0 -1
vn 0 -1 0
vn 0 1 0

# texcoords
vt 0.306641 0.5
vt 0.978516 0.5

# verts
v -8 1 3
v -8 1 -3
v -8 2 6
v -8 2 3
v -8 2 -3
v -8 2 -6
v -8 5 7
v -8 5 6
v -8 5 -6
v -8 5 -7
v -8 11 7
v -8 11 6
v -8 11 -6
v -8 11 -7
v -8 14 6
v -8 14 3
v -8 14 -3
v -8 14 -6
v -8 15 3
v -8 15 -3
v -7 1 6
v -7 1 3
v -7 1 -3
v -7 1 -6
v -7 2 7
v -7 2 6
v -7 2 3
v -7 2 -3
v -7 2 -6
v -7 2 -7
v -7 5 7
v -7 5 6
v -7 5 -6
v -7 5 -7
v -7 11 7
v -7 11 6
v -7 11 -6
v -7 11 -7
v -7 14 7
v -7 14 6
v -7 14 3
v -7 14 -3
v -7 14 -6
v -7 14 -7
v -7 15 6
v -7 15 3
v -7 15 -3
v -7 15 -6
v -7 1 3
v -7 1 -3
v -7 2 6
v -7 2 3
v -7 2 -3
v -7 2 -6
v -7 5 7
v -7 5 6
v -7 5 -6
v -7 5 -7
v -7 11 7
v -7 11 6
v -7 11 -6
v -7 11 -7
v -7 14 6
v -7 14 3
v -7 14 -3
v -7 14 -6
v -7 15 3
v -7 15 -3
v -6 1 6
v -6 1 3
v -6 1 -3
v -6 1 -6
v -6 2 7
v -6 2 6
v -6 2 3
v -6 2 -3
v -6 2 -6
v -6 2 -7
v -6 5 7
v -6 5 6
v -6 5 -6
v -6 5 -7
v -6 11 7
v -6 11 6
v -6 11 -6
v -6 11 -7
v -6 14 7
v -6 14 6
v -6 14 3
v -6 14 -3
v -6 14 -6
v -6 14 -7
v -6 15 6
v -6 15 3
v -6 15 -3
v -6 15 -6
v -8 5 7
v -8 11 7
v -7 2 7
v -7 5 7
v -7 11 7
v -7 14 7
v -6 2 7
v -6 5 7
v -6 11 7
v -6 14 7
v -8 2 6
v -8 5 6
v -8 11 6
v -8 14 6
v -7 1 6
v -7 2 6
v -7 5 6
v -7 11 6
v -7 14 6
v -7 15 6
v -6 1 6
v -6 2 6
v -6 14 6
v -6 15 6
v -8 1 3
v -8 2 3
v -8 14 3
v -8 15 3
v -7 1 3
v -7 2 3
v -7 14 3
v -7 15 3
v -7 1 -3
v -7 2 -3
v -7 14 -3
v -7 15 -3
v -6 1 -3
v -6 2 -3
v -6 14 -3
v -6 15 -3
v -7 2 -6
v -7 5 -6
v -7 11 -6
v -7 14 -6
v -6 2 -6
v -6 5 -6
v -6 11 -6
v -6 14 -6
v -7 2 6
v -7 5 6
v -7 11 6
v -7 14 6
v -6 2 6
v -6 5 6
v -6 11 6
v -6 14 6
v -7 1 3
v -7 2 3
v -7 14 3
v -7 15 3
v -6 1 3
v -6 2 3
v -6 14 3
v -6 15 3
v -8 1 -3
v -8 2 -3
v -8 14 -3
v -8 15 -3
v -7 1 -3
v -7 2 -3
v -7 14 -3
v -7 15 -3
v -8 2 -6
v -8 5 -6
v -8 11 -6
v -8 14 -6
v -7 1 -6
v -7 2 -6
v -7 5 -6
v -7 11 -6
v -7 14 -6
v -7 15 -6
v -6 1 -6
v -6 2 -6
v -6 14 -6
v -6 15 -6
v -8 5 -7
v -8 11 -7
v -7 2 -7
v -7 5 -7
v -7 11 -7
v -7 14 -7
v -6 2 -7
v -6 5 -7
v -6 11 -7
v -6 14 -7
v -7 1 6
v -6 1 6
v -8 1 3
v -7 1 3
v -6 1 3
v -8 1 -3
v -7 1 -3
v -6 1 -3
v -7 1 -6
v -6 1 -6
v -7 2 7
v -6 2 7
v -8 2 6
v -7 2 6
v -6 2 6
v -8 2 3
v -7 2 3
v -8 2 -3
v -7 2 -3
v -8 2 -6
v -7 2 -6
v -6 2 -6
v -7 2 -7
v -6 2 -7
v -8 5 7
v -7 5 7
v -8 5 6
v -7 5 6
v -8 5 -6
v -7 5 -6
v -8 5 -7
v -7 5 -7
v -7 11 7
v -6 11 7
v -7 11 6
v -6 11 6
v -7 11 -6
v -6 11 -6
v -7 11 -7
v -6 11 -7
v -7 14 6
v -6 14 6
v -7 14 3
v -6 14 3
v -7 14 -3
v -6 14 -3
v -7 14 -6
v -6 14 -6
v -7 2 6
v -6 2 6
v -7 2 3
v -6 2 3
v -7 2 -3
v -6 2 -3
v -7 2 -6
v -6 2 -6
v -7 5 7
v -6 5 7
v -7 5 6
v -6 5 6
v -7 5 -6
v -6 5 -6
v -7 5 -7
v -6 5 -7
v -8 11 7
v -7 11 7
v -8 11 6
v -7 11 6
v -8 11 -6
v -7 11 -6
v -8 11 -7
v -7 11 -7
v -7 14 7
v -6 14 7
v -8 14 6
v -7 14 6
v -6 14 6
v -8 14 3
v -7 14 3
v -8 14 -3
v -7 14 -3
v -8 14 -6
v -7 14 -6
v -6 14 -6
v -7 14 -7
v -6 14 -7
v -7 15 6
v -6 15 6
v -8 15 3
v -7 15 3
v -6 15 3
v -8 15 -3
v -7 15 -3
v -6 15 -3
v -7 15 -6
v -6 15 -6

# faces
f 4/2/1 2/2/1 1/2/1
f 5/2/1 2/2/1 4/2/1
f 8/2/1 4/2/1 3/2/1
f 8/2/1 6/2/1 5/2/1
f 8/2/1 5/2/1 4/2/1
f 9/2/1 6/2/1 8/2/1
f 11/1/1 8/1/1 7/1/1
f 11/1/1 10/1/1 9/1/1
f 11/1/1 9/1/1 8/1/1
f 12/1/1 10/1/1 11/1/1
f 13/1/1 10/1/1 12/1/1
f 14/1/1 10/1/1 13/1/1
f 15/2/1 13/2/1 12/2/1
f 16/2/1 13/2/1 15/2/1
f 17/2/1 13/2/1 16/2/1
f 18/2/1 13/2/1 17/2/1
f 19/2/1 17/2/1 16/2/1
f 20/2/1 17/2/1 19/2/1
f 26/2/1 22/2/1 21/2/1
f 27/2/1 22/2/1 26/2/1
f 28/2/1 24/2/1 23/2/1
f 29/2/1 24/2/1 28/2/1
f 31/2/1 26/2/1 25/2/1
f 32/2/1 26/2/1 31/2/1
f 33/2/1 30/2/1 29/2/1
f 34/2/1 30/2/1 33/2/1
f 39/2/1 36/2/1 35/2/1
f 40/2/1 36/2/1 39/2/1
f 43/2/1 38/2/1 37/2/1
f 44/2/1 38/2/1 43/2/1
f 45/2/1 41/2/1 40/2/1
f 46/2/1 41/2/1 45/2/1
f 47/2/1 43/2/1 42/2/1
f 48/2/1 43/2/1 47/2/1
f 49/2/2 50/2/2 52/2/2
f 52/2/2 50/2/2 53/2/2
f 51/2/2 52/2/2 56/2/2
f 53/2/2 54/2/2 56/2/2
f 52/2/2 53/2/2 56/2/2
f 56/2/2 54/2/2 57/2/2
f 55/1/2 56/1/2 59/1/2
f 57/1/2 58/1/2 59/1/2
f 56/1/2 57/1/2 59/1/2
f 59/1/2 58/1/2 60/1/2
f 60/1/2 58/1/2 61/1/2
f 61/1/2 58/1/2 62/1/2
f 60/2/2 61/2/2 63/2/2
f 63/2/2 61/2/2 64/2/2
f 64/2/2 61/2/2 65/2/2
f 65/2/2 61/2/2 66/2/2
f 64/2/2 65/2/2 67/2/2
f 67/2/2 65/2/2 68/2/2
f 69/2/2 70/2/2 74/2/2
f 74/2/2 70/2/2 75/2/2
f 71/2/2 72/2/2 76/2/2
f 76/2/2 72/2/2 77/2/2
f 73/2/2 74/2/2 79/2/2
f 79/2/2 74/2/2 80/2/2
f 77/2/2 78/2/2 81/2/2
f 81/2/2 78/2/2 82/2/2
f 83/2/2 84/2/2 87/2/2
f 87/2/2 84/2/2 88/2/2
f 85/2/2 86/2/2 91/2/2
f 91/2/2 86/2/2 92/2/2
f 88/2/2 89/2/2 93/2/2
f 93/2/2 89/2/2 94/2/2
f 90/2/2 91/2/2 95/2/2
f 95/2/2 91/2/2 96/2/2
f 100/1/3 98/1/3 97/1/3
f 101/1/3 98/1/3 100/1/3
f 103/2/3 100/2/3 99/2/3
f 104/2/3 100/2/3 103/2/3
f 105/2/3 102/2/3 101/2/3
f 106/2/3 102/2/3 105/2/3
f 112/2/3 108/2/3 107/2/3
f 113/2/3 108/2/3 112/2/3
f 114/2/3 110/2/3 109/2/3
f 115/2/3 110/2/3 114/2/3
f 117/2/3 112/2/3 111/2/3
f 118/2/3 112/2/3 117/2/3
f 119/2/3 116/2/3 115/2/3
f 120/2/3 116/2/3 119/2/3
f 125/2/3 122/2/3 121/2/3
f 126/2/3 122/2/3 125/2/3
f 127/2/3 124/2/3 123/2/3
f 128/2/3 124/2/3 127/2/3
f 133/2/3 130/2/3 129/2/3
f 134/2/3 130/2/3 133/2/3
f 135/2/3 132/2/3 131/2/3
f 136/2/3 132/2/3 135/2/3
f 141/2/3 138/2/3 137/2/3
f 142/2/3 138/2/3 141/2/3
f 143/2/3 140/2/3 139/2/3
f 144/2/3 140/2/3 143/2/3
f 145/2/4 146/2/4 149/2/4
f 149/2/4 146/2/4 150/2/4
f 147/2/4 148/2/4 151/2/4
f 151/2/4 148/2/4 152/2/4
f 153/2/4 154/2/4 157/2/4
f 157/2/4 154/2/4 158/2/4
f 155/2/4 156/2/4 159/2/4
f 159/2/4 156/2/4 160/2/4
f 161/2/4 162/2/4 165/2/4
f 165/2/4 162/2/4 166/2/4
f 163/2/4 164/2/4 167/2/4
f 167/2/4 164/2/4 168/2/4
f 169/2/4 170/2/4 174/2/4
f 174/2/4 170/2/4 175/2/4
f 171/2/4 172/2/4 176/2/4
f 176/2/4 172/2/4 177/2/4
f 173/2/4 174/2/4 179/2/4
f 179/2/4 174/2/4 180/2/4
f 177/2/4 178/2/4 181/2/4
f 181/2/4 178/2/4 182/2/4
f 183/1/4 184/1/4 186/1/4
f 186/1/4 184/1/4 187/1/4
f 185/2/4 186/2/4 189/2/4
f 189/2/4 186/2/4 190/2/4
f 187/2/4 188/2/4 191/2/4
f 191/2/4 188/2/4 192/2/4
f 196/2/5 194/2/5 193/2/5
f 197/2/5 194/2/5 196/2/5
f 198/2/5 196/2/5 195/2/5
f 199/2/5 196/2/5 198/2/5
f 201/2/5 200/2/5 199/2/5
f 202/2/5 200/2/5 201/2/5
f 206/2/5 204/2/5 203/2/5
f 207/2/5 204/2/5 206/2/5
f 208/2/5 206/2/5 205/2/5
f 209/2/5 206/2/5 208/2/5
f 212/2/5 211/2/5 210/2/5
f 213/2/5 211/2/5 212/2/5
f 215/2/5 214/2/5 213/2/5
f 216/2/5 214/2/5 215/2/5
f 219/1/5 218/1/5 217/1/5
f 220/1/5 218/1/5 219/1/5
f 223/1/5 222/1/5 221/1/5
f 224/1/5 222/1/5 223/1/5
f 227/2/5 226/2/5 225/2/5
f 228/2/5 226/2/5 227/2/5
f 231/2/5 230/2/5 229/2/5
f 232/2/5 230/2/5 231/2/5
f 235/2/5 234/2/5 233/2/5
f 236/2/5 234/2/5 235/2/5
f 239/2/5 238/2/5 237/2/5
f 240/2/5 238/2/5 239/2/5
f 241/2/6 242/2/6 243/2/6
f 243/2/6 242/2/6 244/2/6
f 245/2/6 246/2/6 247/2/6
f 247/2/6 246/2/6 248/2/6
f 249/2/6 250/2/6 251/2/6
f 251/2/6 250/2/6 252/2/6
f 253/2/6 254/2/6 255/2/6
f 255/2/6 254/2/6 256/2/6
f 257/1/6 258/1/6 259/1/6
f 259/1/6 258/1/6 260/1/6
f 261/1/6 262/1/6 263/1/6
f 263/1/6 262/1/6 264/1/6
f 265/2/6 266/2/6 268/2/6
f 268/2/6 266/2/6 269/2/6
f 267/2/6 268/2/6 270/2/6
f 270/2/6 268/2/6 271/2/6
f 272/2/6 273/2/6 274/2/6
f 274/2/6 273/2/6 275/2/6
f 275/2/6 276/2/6 277/2/6
f 277/2/6 276/2/6 278/2/6
f 279/2/6 280/2/6 282/2/6
f 282/2/6 280/2/6 283/2/6
f 281/2/6 282/2/6 284/2/6
f 284/2/6 282/2/6 285/2/6
f 285/2/6 286/2/6 287/2/6
f 287/2/6 286/2/6 288/2/6
